<svg xmlns="http://www.w3.org/2000/svg" width="93" height="17" viewBox="0 0 93 17"><title>logo_mob</title><g fill="#666"><path d="M87.2 6.8H85V3.1h6.3V1h-8.6v15h4.5c3.3 0 5.1-1.8 5.1-4.6s-1.9-4.6-5.1-4.6zm-.4 7.1h-1.9v-5h1.9c2.3 0 3.1.9 3.1 2.5s-.8 2.5-3.1 2.5zM71.2 1l-3 15h2.2l.8-4.5h4.2l.8 4.5h2.2l-3-15h-4.2zm.4 8.4l1.2-6.1H74l1.1 6.1h-3.5zM3.6 1l-3 15h2.2l.8-4.5h4.2l.9 4.5H11L8 1H3.6zm.5 8.4l1.2-6.1h1.2l1.1 6.1H4.1zM22.7 8.4v-.6c1.1-.6 1.6-1.6 1.6-2.9 0-2.2-1.5-3.9-4.6-3.9h-4.6v15h4.5c3.4 0 5.1-1.9 5.1-4.3 0-1.5-.6-2.6-2-3.3zm-5.3-5.3h2.1c1.9 0 2.6.8 2.6 2 0 1.3-.7 2-2.6 2h-2.1v-4zm2.1 10.8h-2.1V9.3h2.1c2.1 0 2.9.9 2.9 2.3s-.8 2.3-2.9 2.3zM45.6.7c-3.8 0-5.3 3.2-5.3 7.8 0 4.5 1.4 7.8 5.3 7.8s5.3-3.3 5.3-7.8S49.5.7 45.6.7zm0 13.4c-2.4 0-3-2.2-3-5.6 0-3.4.7-5.6 3-5.6s3 2.2 3 5.6c0 3.4-.6 5.6-3 5.6zM27.7 3.1h3.5V16h2.3V3.1h3.6V1h-9.4zM64.8 1h-2.4l-2.1 5.7h-1.1L57.1 1h-2.4l2.6 7.1-2.9 7.9h2.4l2.3-6.5h1.2l2.3 6.5h2.5l-2.9-7.9z"/></g></svg>