<svg width="155" height="27" viewBox="0 0 155 27" xmlns="http://www.w3.org/2000/svg"><title>logo</title><path d="M14.56 26h3.745L13.3 1.01H6.02L1.05 26h3.675l1.365-7.42h7.07l1.4 7.42zM8.68 4.86h1.925l1.89 10.22h-5.74L8.68 4.86zm29.19 7.455c1.82-1.015 2.695-2.66 2.695-4.83 0-3.64-2.555-6.475-7.63-6.475H25.2V26h7.455c5.67 0 8.54-3.185 8.54-7.245 0-2.45-1.05-4.305-3.325-5.46v-.98zm-5.39-1.05h-3.535V4.51h3.535c3.115 0 4.27 1.26 4.27 3.395 0 2.1-1.155 3.36-4.27 3.36zm0 11.235h-3.535v-7.735h3.535c3.57 0 4.9 1.435 4.9 3.885 0 2.415-1.33 3.85-4.9 3.85zM61.81 1.01H46.095v3.5h5.985V26h3.745V4.51h5.985v-3.5zM76.055.555c-6.405 0-8.82 5.39-8.82 12.95 0 7.525 2.415 12.95 8.82 12.95s8.82-5.425 8.82-12.95c0-7.56-2.415-12.95-8.82-12.95zm0 22.295c-3.92 0-5.005-3.64-5.005-9.345s1.085-9.345 5.005-9.345 5.005 3.64 5.005 9.345-1.085 9.345-5.005 9.345zm24.395-7.7L104.37 26h4.06l-4.83-13.23 4.34-11.76h-3.92l-3.5 9.52h-1.89l-3.5-9.52h-3.99l4.34 11.76L90.65 26h3.99l3.92-10.85h1.89zM127.19 26h3.745L125.93 1.01h-7.28L113.68 26h3.675l1.365-7.42h7.07l1.4 7.42zm-5.88-21.14h1.925l1.89 10.22h-5.74l1.925-10.22zm30.835-.35v-3.5H137.83V26h7.42c5.425 0 8.505-2.975 8.505-7.665 0-4.725-3.08-7.595-8.505-7.595h-3.675V4.51h10.57zm-7.42 17.99h-3.15v-8.26h3.15c3.815 0 5.215 1.54 5.215 4.13s-1.4 4.13-5.215 4.13z" fill="#666" fill-rule="evenodd"/></svg>