<svg xmlns="http://www.w3.org/2000/svg" width="20" height="20" viewBox="0 0 20 20"><title>filter</title><g fill="#666"><path d="M8 4c-.3-1.1-1.3-2-2.5-2S3.3 2.9 3 4H0v1h3.1c.3 1.1 1.2 1.9 2.4 1.9S7.7 6.1 7.9 5H20V4H8zM5.5 6C4.7 6 4 5.3 4 4.5S4.7 3 5.5 3 7 3.7 7 4.5 6.3 6 5.5 6zM5.5 12c-1.2 0-2.2.9-2.5 2H0v1h3.1c.3 1.1 1.2 1.9 2.4 1.9s2.2-.8 2.4-1.9H20v-1H8c-.3-1.1-1.3-2-2.5-2zm0 4c-.8 0-1.5-.7-1.5-1.5S4.7 13 5.5 13s1.5.7 1.5 1.5S6.3 16 5.5 16zM14.5 7c-1.2 0-2.2.9-2.5 2H0v1h12.1c.3 1.1 1.2 1.9 2.4 1.9s2.2-.8 2.4-1.9H20V9h-3c-.3-1.1-1.3-2-2.5-2zm0 4c-.8 0-1.5-.7-1.5-1.5S13.7 8 14.5 8s1.5.7 1.5 1.5-.7 1.5-1.5 1.5z"/></g></svg>